PathFileType	4	(X/Y/Z)	/Users/niels/Desktop/University/Third Semester/Perception and Action/Exam/Gymnastics Motion Tracking/Code for Gym Tracking/Analyzed Data/Webcam_Backflip/id7_1_baseline_Sports2D/id7_1_baseline_Sports2D_px_person00.trc
DataRate	CameraRate	NumFrames	NumMarkers	Units	OrigDataRate	OrigDataStartFrame	OrigNumFrames
29.80392156862745	29.80392156862745	11	22	m	29.80392156862745	38	153
Frame#	Time	Hip			RHip			RKnee			RAnkle			RBigToe			RSmallToe			RHeel			LHip			LKnee			LAnkle			LBigToe			LSmallToe			LHeel			Neck			Head			Nose			RShoulder			RElbow			RWrist			LShoulder			LElbow			LWrist		
		X1	Y1	Z1	X2	Y2	Z2	X3	Y3	Z3	X4	Y4	Z4	X5	Y5	Z5	X6	Y6	Z6	X7	Y7	Z7	X8	Y8	Z8	X9	Y9	Z9	X10	Y10	Z10	X11	Y11	Z11	X12	Y12	Z12	X13	Y13	Z13	X14	Y14	Z14	X15	Y15	Z15	X16	Y16	Z16	X17	Y17	Z17	X18	Y18	Z18	X19	Y19	Z19	X20	Y20	Z20	X21	Y21	Z21	X22	Y22	Z22
38	1.275	0.8424800954035558	-0.6338672951934119	0.0	0.8302004613951522	-0.6341343788466672	0.0	0.8256482049985306	-0.744240759464303	0.0	0.7828441228317639	-0.8338512404287985	0.0	0.809320825982117	-0.851023686725031	0.0	0.8034226131663635	-0.8514972488819755	0.0	0.7764890821509751	-0.8410380336929569	0.0	0.8599299189146482	-0.6283690174425904	0.0	0.9137400791622402	-0.706822550667599	0.0	0.8765142068999066	-0.7992374825087802	0.0	0.9058704038878733	-0.8185554141038246	0.0	0.9043429641494515	-0.8116311774236249	0.0	0.8641021794325943	-0.8119725375109876	0.0	0.8342734397364369	-0.4836431692902619	0.0	0.8440238801224231	-0.40960106057271034	0.0	0.8595755600803759	-0.448024485701332	0.0	0.834588197904086	-0.49089954628425425	0.0	0.8560804445550358	-0.4278341696709908	0.0	0.8612335185233942	-0.35695867558686317	0.0	0.8255797235900757	-0.49061683828875385	0.0	0.8375079031556366	-0.42938772519377927	0.0	0.8253478872767862	-0.4107630868619902	0.0
39	1.3085526315789473	0.8409880818480493	-0.6380644581343168	0.0	0.8286309497864625	-0.6387603196796593	0.0	0.82585530095669	-0.7479249570756649	0.0	0.7820397039319135	-0.8367315905570419	0.0	0.8086339857118959	-0.852855423694027	0.0	0.8036324686483381	-0.8538431022865046	0.0	0.7756014353023003	-0.8431786748609531	0.0	0.8580987017559226	-0.6329165738492565	0.0	0.9110713596047525	-0.711041145113125	0.0	0.8747052893682034	-0.8035137999654473	0.0	0.9039269824817502	-0.8223690218790595	0.0	0.9018733168489735	-0.8151917433076905	0.0	0.8626892579931422	-0.8158860482050044	0.0	0.834511255511682	-0.4883695777295728	0.0	0.843984996877165	-0.4143270740843788	0.0	0.8586352501313321	-0.4523968451559514	0.0	0.8333982141596227	-0.4974380934143655	0.0	0.8561716242605412	-0.43513809690891847	0.0	0.8649547473904926	-0.3667177799826498	0.0	0.827340361513191	-0.495633771324676	0.0	0.8429366831522389	-0.4350934372462152	0.0	0.8355487027834084	-0.4018995136997012	0.0
40	1.3421052631578947	0.8412643567365414	-0.6356600994078346	0.0	0.8291587951442628	-0.6366541892315047	0.0	0.8280165475683325	-0.7453696657008496	0.0	0.7816434935870147	-0.8345807051865299	0.0	0.8079633775355012	-0.8497334528746067	0.0	0.8034995455384869	-0.8508533873961028	0.0	0.7744788100107481	-0.8407302533359271	0.0	0.8576790365091929	-0.6310029217601948	0.0	0.9093373851496357	-0.7098708271738955	0.0	0.8736409216782856	-0.8032110849166884	0.0	0.9032197009115241	-0.821072511990925	0.0	0.9007919464394334	-0.8140248053818212	0.0	0.8617153753540986	-0.8156065891878062	0.0	0.8359343557832855	-0.48636358280721237	0.0	0.84522243115383	-0.4125301924152469	0.0	0.8590385296808256	-0.4501153184425721	0.0	0.8335241251112594	-0.49735672928735863	0.0	0.8578533753520428	-0.43705220329377215	0.0	0.8713456518030477	-0.37198770957348404	0.0	0.8296677851864471	-0.49438815678291864	0.0	0.8460085136588743	-0.4380772662875831	0.0	0.8443420211211793	-0.39504237190043295	0.0
41	1.375657894736842	0.8430725243931608	-0.6271108531604841	0.0	0.8314752839554012	-0.6282433991740456	0.0	0.8324945073573221	-0.7369110184403702	0.0	0.7817430457790205	-0.8271511397375214	0.0	0.8076755132968738	-0.841788128381774	0.0	0.8031410054554996	-0.8427281852945175	0.0	0.7733001290446357	-0.8334046561253656	0.0	0.858654319988756	-0.6229783479206364	0.0	0.90880612717691	-0.7035352264627149	0.0	0.8733048696559124	-0.798219586074362	0.0	0.9038548155775779	-0.81489533162413	0.0	0.9012092239291962	-0.8082618744957094	0.0	0.861170976383754	-0.8108906830563675	0.0	0.8382453096419965	-0.47820098005541717	0.0	0.8477117435881916	-0.4048816873622382	0.0	0.8609282900621006	-0.44193409169985676	0.0	0.8349546185497625	-0.4909832396342032	0.0	0.8607131785315666	-0.4346384311332588	0.0	0.8788921333763292	-0.37408955010459544	0.0	0.8319258485530698	-0.487358254695863	0.0	0.8469831109460384	-0.4395324465918241	0.0	0.8505404611836093	-0.39327166665946	0.0
42	1.4092105263157895	0.8460300226413802	-0.6136095512235158	0.0	0.8350814306996159	-0.6147361551447312	0.0	0.8397656417606437	-0.7235477561008427	0.0	0.7828526700714016	-0.8145606625836045	0.0	0.8084511816313805	-0.8296546435849043	0.0	0.803209930085312	-0.8302641815253462	0.0	0.7727644465017858	-0.8211542854081344	0.0	0.8608678002982009	-0.6098848152790747	0.0	0.9096068380847947	-0.6928720777266426	0.0	0.8737275665298612	-0.7890064398528606	0.0	0.9054620335264278	-0.8048098500846891	0.0	0.9027416106939229	-0.7987949435791174	0.0	0.8612348020753503	-0.8019830034107189	0.0	0.8413024940380479	-0.46523230418123696	0.0	0.8513961765619319	-0.3927314169953686	0.0	0.8644517086355967	-0.42928235899506667	0.0	0.8375290128752515	-0.47951762464023495	0.0	0.8641104522589566	-0.4301086906762032	0.0	0.8857413238432873	-0.37544604705998663	0.0	0.834223590665106	-0.47553006995093794	0.0	0.8473329412256857	-0.4400634581577298	0.0	0.8553132445060623	-0.3965018372376484	0.0
43	1.4427631578947369	0.8497219349039752	-0.5968887629276708	0.0	0.8394606521335056	-0.5978797150106627	0.0	0.8500493484497539	-0.7067626157026693	0.0	0.785788891620722	-0.797577723252458	0.0	0.8110623618621143	-0.8146060672386032	0.0	0.8046544461080121	-0.8148557686455693	0.0	0.7739197180508294	-0.8045221335709206	0.0	0.8640087553681245	-0.5933317690142398	0.0	0.9116229888873313	-0.6792068534219204	0.0	0.875010645761848	-0.7767786247760011	0.0	0.9078089342701905	-0.7924365373291884	0.0	0.905054901160609	-0.7871384114332329	0.0	0.8622569981486389	-0.7899094365230475	0.0	0.8451289812386744	-0.4492035879427566	0.0	0.8560920861231507	-0.3776712277272312	0.0	0.869689687920104	-0.41386927912284577	0.0	0.8409734999367451	-0.46465975417714617	0.0	0.8672089045725528	-0.42626376852794506	0.0	0.8901234185084409	-0.3789164353772489	0.0	0.8373625440464143	-0.4602351009269576	0.0	0.8492063158280364	-0.43906198442830585	0.0	0.8612609693956299	-0.4020632025513227	0.0
44	1.4763157894736842	0.8537686866259576	-0.578874412977717	0.0	0.8441971986568193	-0.5796300271739517	0.0	0.8629010279385116	-0.6882628035843932	0.0	0.7914525989402816	-0.7778986710184853	0.0	0.8164589329399015	-0.7984665268292861	0.0	0.8086879871258809	-0.7983622429164907	0.0	0.7779654503703711	-0.785042092403478	0.0	0.867597934339031	-0.5752665509220384	0.0	0.9144787101716951	-0.6641641032782681	0.0	0.8773228372806479	-0.7632306004386596	0.0	0.9109468782742365	-0.7797032104631524	0.0	0.9080742957757233	-0.7750762385180134	0.0	0.8646274851936028	-0.7762811224063099	0.0	0.8497733329400767	-0.4318992832850658	0.0	0.861521882838375	-0.3612496535331303	0.0	0.8764803675390861	-0.39738485531578494	0.0	0.8450114806753254	-0.4482345628180386	0.0	0.869198272356473	-0.42545776089824394	0.0	0.8909111680009408	-0.3868354884282227	0.0	0.8421552033024542	-0.44313867457111455	0.0	0.8542148467100726	-0.43519437739309086	0.0	0.8703698516503078	-0.40620845243205983	0.0
45	1.5098684210526316	0.8579413718340705	-0.5613960965558733	0.0	0.8491030005200071	-0.5618631288778042	0.0	0.8771272045023595	-0.6697640382628264	0.0	0.8006312046077568	-0.758120931831009	0.0	0.8258627996781477	-0.7832424606780624	0.0	0.8167848241583283	-0.7827945128952852	0.0	0.7860152924513906	-0.7653925899464354	0.0	0.8711525618322844	-0.5576471872415146	0.0	0.9176100553070853	-0.6494736965362043	0.0	0.8808787970426558	-0.7500427201084913	0.0	0.9149826446596417	-0.7682965065624847	0.0	0.9118830095607147	-0.7641601076328908	0.0	0.8686264575838201	-0.762844641317244	0.0	0.8551844028782929	-0.4149646074987589	0.0	0.86747939992999	-0.34494195576121894	0.0	0.8843427308533012	-0.3813660718579688	0.0	0.8494883703092198	-0.43189766845700006	0.0	0.8696933529615138	-0.42829279133697135	0.0	0.888207841472222	-0.400014683848654	0.0	0.8487904438703672	-0.42613382985682463	0.0	0.8617953908077357	-0.42843930326321433	0.0	0.881661473884942	-0.40751794245684836	0.0
46	1.543421052631579	0.8622708306379222	-0.5459718683970054	0.0	0.8543006193774509	-0.5461179743490626	0.0	0.891084450379717	-0.6529167045783896	0.0	0.81384484487468	-0.7412335087383881	0.0	0.8403332106543475	-0.7707293203369785	0.0	0.8301549368851152	-0.7700128615321686	0.0	0.7987876167144623	-0.7489361788996334	0.0	0.8744369810658414	-0.542103108453226	0.0	0.9204132980517117	-0.6367499087199429	0.0	0.8859096438019534	-0.7385994593602951	0.0	0.9200317473107223	-0.7593423405276406	0.0	0.9167165573227991	-0.7554669918246686	0.0	0.8743769321841084	-0.751247344772807	0.0	0.8612032695117243	-0.3997768799973874	0.0	0.8739469819127579	-0.33009889573864787	0.0	0.8926526845058329	-0.36708716578788336	0.0	0.8544605011880354	-0.4169802942146303	0.0	0.8690327453246914	-0.4330265665330852	0.0	0.8834816603681266	-0.41724952679798333	0.0	0.8566270106245506	-0.41098131949126887	0.0	0.8691629422367739	-0.42102863404188967	0.0	0.8913880778097185	-0.4084688688582113	0.0
47	1.5769736842105264	0.8669923344821315	-0.5336643597511297	0.0	0.8601152085807203	-0.5334667074182606	0.0	0.9032173129535925	-0.6392466225569797	0.0	0.8311019946456866	-0.7296739820359254	0.0	0.8599662475274039	-0.7621766849974058	0.0	0.8489045683168679	-0.761412531027796	0.0	0.8162730375942497	-0.7385413891750886	0.0	0.8775578561946248	-0.5297604944421562	0.0	0.9224659941534926	-0.6272492960450163	0.0	0.8925265075413389	-0.7299585031736886	0.0	0.9262424095320339	-0.7534452806931828	0.0	0.9228865833902179	-0.7496777085266851	0.0	0.881786521142632	-0.742896782524131	0.0	0.86760900742778	-0.38733501188375713	0.0	0.8809591497464324	-0.31778396813946735	0.0	0.9008507630833853	-0.35546774935650766	0.0	0.860083677207728	-0.40453780032016073	0.0	0.8680862945730715	-0.4370083384760544	0.0	0.8787324180487366	-0.4361816233301148	0.0	0.8644353472806446	-0.39890093994210196	0.0	0.8733457159680295	-0.4154419628760753	0.0	0.8958517468522005	-0.4122623006637575	0.0
48	1.6105263157894738	0.8723707766325247	-0.5250954366010477	0.0	0.86681881314477	-0.5245774010820132	0.0	0.912611403269196	-0.6299381142494243	0.0	0.8515495826761855	-0.7244397910431747	0.0	0.8834393596806834	-0.75801801732725	0.0	0.8716761689797035	-0.7575468680316458	0.0	0.837452167202101	-0.7353415371647306	0.0	0.880868200486916	-0.5212589333337704	0.0	0.9237273867621909	-0.6216949530631594	0.0	0.9004982702931691	-0.7247938319468191	0.0	0.9336165660039843	-0.7508269112200169	0.0	0.9304582605333643	-0.7471439395209074	0.0	0.8903938055339897	-0.7386543918977203	0.0	0.8741313983432616	-0.37827920642126267	0.0	0.8883855353391811	-0.30872092765163234	0.0	0.9085090479685853	-0.3471151169666922	0.0	0.8663491026214365	-0.395419206753034	0.0	0.867734721956844	-0.4391198691604113	0.0	0.8753378835799196	-0.45485058547389484	0.0	0.8709835624174785	-0.39044496781110594	0.0	0.872697420118849	-0.4124421836481222	0.0	0.8934595441574668	-0.4195422560727933	0.0
